<mxfile host="app.diagrams.net" agent="Mozilla/5.0 (Windows NT 10.0; Win64; x64) AppleWebKit/537.36 (KHTML, like Gecko) Chrome/126.0.0.0 Safari/537.36" version="24.7.7">
  <diagram id="C5RBs43oDa-KdzZeNtuy" name="Architecture">
    <mxGraphModel dx="880" dy="434" grid="1" gridSize="10" guides="1" tooltips="1" connect="1" arrows="1" fold="1" page="1" pageScale="1" pageWidth="827" pageHeight="1169" math="0" shadow="0">
      <root>
        <mxCell id="WIyWlLk6GJQsqaUBKTNV-0" />
        <mxCell id="WIyWlLk6GJQsqaUBKTNV-1" parent="WIyWlLk6GJQsqaUBKTNV-0" />
        <mxCell id="XiizGxNztvci3S3A1X1L-32" style="edgeStyle=orthogonalEdgeStyle;rounded=0;orthogonalLoop=1;jettySize=auto;html=1;" edge="1" parent="WIyWlLk6GJQsqaUBKTNV-1" source="XiizGxNztvci3S3A1X1L-14" target="XiizGxNztvci3S3A1X1L-9">
          <mxGeometry relative="1" as="geometry" />
        </mxCell>
        <mxCell id="XiizGxNztvci3S3A1X1L-8" value="&amp;lt;Interface&amp;gt;&lt;div&gt;SimulationListener&lt;/div&gt;" style="rounded=0;whiteSpace=wrap;html=1;" vertex="1" parent="WIyWlLk6GJQsqaUBKTNV-1">
          <mxGeometry x="360" y="600" width="120" height="40" as="geometry" />
        </mxCell>
        <mxCell id="XiizGxNztvci3S3A1X1L-9" value="&amp;lt;Interface&amp;gt;&lt;div&gt;Clickable&lt;/div&gt;" style="rounded=0;whiteSpace=wrap;html=1;" vertex="1" parent="WIyWlLk6GJQsqaUBKTNV-1">
          <mxGeometry x="120" y="600" width="120" height="40" as="geometry" />
        </mxCell>
        <mxCell id="XiizGxNztvci3S3A1X1L-54" style="edgeStyle=orthogonalEdgeStyle;rounded=0;orthogonalLoop=1;jettySize=auto;html=1;entryX=0.5;entryY=0;entryDx=0;entryDy=0;" edge="1" parent="WIyWlLk6GJQsqaUBKTNV-1" source="XiizGxNztvci3S3A1X1L-34" target="XiizGxNztvci3S3A1X1L-8">
          <mxGeometry relative="1" as="geometry" />
        </mxCell>
        <mxCell id="XiizGxNztvci3S3A1X1L-72" value="" style="group;rotation=-55;" vertex="1" connectable="0" parent="WIyWlLk6GJQsqaUBKTNV-1">
          <mxGeometry x="320" y="290" width="15" height="180" as="geometry" />
        </mxCell>
        <mxCell id="XiizGxNztvci3S3A1X1L-58" value="" style="shape=partialRectangle;whiteSpace=wrap;html=1;top=0;bottom=0;fillColor=none;direction=east;rotation=-55;" vertex="1" parent="XiizGxNztvci3S3A1X1L-72">
          <mxGeometry x="-22" y="19" width="15" height="179.99999999999997" as="geometry" />
        </mxCell>
        <mxCell id="XiizGxNztvci3S3A1X1L-59" value="" style="endArrow=classic;html=1;rounded=0;entryX=0.25;entryY=0;entryDx=0;entryDy=0;exitX=0.25;exitY=1;exitDx=0;exitDy=0;" edge="1" parent="XiizGxNztvci3S3A1X1L-72" source="XiizGxNztvci3S3A1X1L-58" target="XiizGxNztvci3S3A1X1L-58">
          <mxGeometry width="50" height="50" relative="1" as="geometry">
            <mxPoint x="40" y="213" as="sourcePoint" />
            <mxPoint x="-17" y="57" as="targetPoint" />
          </mxGeometry>
        </mxCell>
        <mxCell id="XiizGxNztvci3S3A1X1L-60" value="" style="endArrow=classic;html=1;rounded=0;entryX=0.75;entryY=1;entryDx=0;entryDy=0;exitX=0.75;exitY=0;exitDx=0;exitDy=0;" edge="1" parent="XiizGxNztvci3S3A1X1L-72" source="XiizGxNztvci3S3A1X1L-58" target="XiizGxNztvci3S3A1X1L-58">
          <mxGeometry width="50" height="50" relative="1" as="geometry">
            <mxPoint x="55" y="175" as="sourcePoint" />
            <mxPoint x="-45" y="63" as="targetPoint" />
          </mxGeometry>
        </mxCell>
        <mxCell id="XiizGxNztvci3S3A1X1L-74" value="" style="group" vertex="1" connectable="0" parent="WIyWlLk6GJQsqaUBKTNV-1">
          <mxGeometry x="120" y="40" width="120" height="120" as="geometry" />
        </mxCell>
        <mxCell id="XiizGxNztvci3S3A1X1L-47" value="" style="ellipse;whiteSpace=wrap;html=1;aspect=fixed;" vertex="1" parent="XiizGxNztvci3S3A1X1L-74">
          <mxGeometry width="120" height="120" as="geometry" />
        </mxCell>
        <mxCell id="XiizGxNztvci3S3A1X1L-48" value="Road&lt;div&gt;Actor&lt;/div&gt;&lt;div&gt;&lt;br&gt;&lt;/div&gt;" style="shape=umlActor;verticalLabelPosition=bottom;verticalAlign=top;html=1;outlineConnect=0;" vertex="1" parent="XiizGxNztvci3S3A1X1L-74">
          <mxGeometry x="45" y="12" width="30" height="60" as="geometry" />
        </mxCell>
        <mxCell id="XiizGxNztvci3S3A1X1L-75" value="" style="group" vertex="1" connectable="0" parent="WIyWlLk6GJQsqaUBKTNV-1">
          <mxGeometry x="360" y="240" width="120" height="120" as="geometry" />
        </mxCell>
        <mxCell id="XiizGxNztvci3S3A1X1L-43" value="" style="ellipse;whiteSpace=wrap;html=1;aspect=fixed;" vertex="1" parent="XiizGxNztvci3S3A1X1L-75">
          <mxGeometry width="120" height="120" as="geometry" />
        </mxCell>
        <mxCell id="XiizGxNztvci3S3A1X1L-44" value="&lt;div&gt;Simulation&lt;/div&gt;&lt;div&gt;Actor&lt;/div&gt;&lt;div&gt;&lt;br&gt;&lt;/div&gt;" style="shape=umlActor;verticalLabelPosition=bottom;verticalAlign=top;html=1;outlineConnect=0;" vertex="1" parent="XiizGxNztvci3S3A1X1L-75">
          <mxGeometry x="45" y="12" width="30" height="60" as="geometry" />
        </mxCell>
        <mxCell id="XiizGxNztvci3S3A1X1L-77" value="" style="group" vertex="1" connectable="0" parent="WIyWlLk6GJQsqaUBKTNV-1">
          <mxGeometry x="120" y="240" width="120" height="120" as="geometry" />
        </mxCell>
        <mxCell id="XiizGxNztvci3S3A1X1L-51" value="" style="ellipse;whiteSpace=wrap;html=1;aspect=fixed;" vertex="1" parent="XiizGxNztvci3S3A1X1L-77">
          <mxGeometry width="120" height="120" as="geometry" />
        </mxCell>
        <mxCell id="XiizGxNztvci3S3A1X1L-52" value="&lt;div&gt;SimulationHandler&lt;/div&gt;&lt;div&gt;Actor&lt;/div&gt;&lt;div&gt;&lt;br&gt;&lt;/div&gt;" style="shape=umlActor;verticalLabelPosition=bottom;verticalAlign=top;html=1;outlineConnect=0;" vertex="1" parent="XiizGxNztvci3S3A1X1L-77">
          <mxGeometry x="45" y="12" width="30" height="60" as="geometry" />
        </mxCell>
        <mxCell id="XiizGxNztvci3S3A1X1L-78" value="" style="group" vertex="1" connectable="0" parent="WIyWlLk6GJQsqaUBKTNV-1">
          <mxGeometry x="360" y="440" width="120" height="120" as="geometry" />
        </mxCell>
        <mxCell id="XiizGxNztvci3S3A1X1L-34" value="" style="ellipse;whiteSpace=wrap;html=1;aspect=fixed;" vertex="1" parent="XiizGxNztvci3S3A1X1L-78">
          <mxGeometry width="120" height="120" as="geometry" />
        </mxCell>
        <mxCell id="XiizGxNztvci3S3A1X1L-35" value="&lt;div&gt;ViewListenerRelay&lt;/div&gt;&lt;div&gt;Actor&lt;/div&gt;&lt;div&gt;&lt;br&gt;&lt;div&gt;&lt;br&gt;&lt;/div&gt;&lt;/div&gt;" style="shape=umlActor;verticalLabelPosition=bottom;verticalAlign=top;html=1;outlineConnect=0;" vertex="1" parent="XiizGxNztvci3S3A1X1L-78">
          <mxGeometry x="45" y="12" width="30" height="60" as="geometry" />
        </mxCell>
        <mxCell id="XiizGxNztvci3S3A1X1L-79" value="" style="group" vertex="1" connectable="0" parent="WIyWlLk6GJQsqaUBKTNV-1">
          <mxGeometry x="120" y="440" width="120" height="120" as="geometry" />
        </mxCell>
        <mxCell id="XiizGxNztvci3S3A1X1L-14" value="" style="ellipse;whiteSpace=wrap;html=1;aspect=fixed;" vertex="1" parent="XiizGxNztvci3S3A1X1L-79">
          <mxGeometry width="120" height="120" as="geometry" />
        </mxCell>
        <mxCell id="XiizGxNztvci3S3A1X1L-7" value="&lt;div&gt;ViewClickRelay&lt;/div&gt;&lt;div&gt;Actor&lt;/div&gt;&lt;div&gt;&lt;br&gt;&lt;div&gt;&lt;br&gt;&lt;/div&gt;&lt;/div&gt;" style="shape=umlActor;verticalLabelPosition=bottom;verticalAlign=top;html=1;outlineConnect=0;" vertex="1" parent="XiizGxNztvci3S3A1X1L-79">
          <mxGeometry x="45" y="12" width="30" height="60" as="geometry" />
        </mxCell>
        <mxCell id="XiizGxNztvci3S3A1X1L-80" value="" style="group;rotation=0;" vertex="1" connectable="0" parent="WIyWlLk6GJQsqaUBKTNV-1">
          <mxGeometry x="414" y="370" width="15" height="60" as="geometry" />
        </mxCell>
        <mxCell id="XiizGxNztvci3S3A1X1L-81" value="" style="shape=partialRectangle;whiteSpace=wrap;html=1;top=0;bottom=0;fillColor=none;direction=east;rotation=0;" vertex="1" parent="XiizGxNztvci3S3A1X1L-80">
          <mxGeometry x="-4" y="-1" width="15" height="59.999999999999986" as="geometry" />
        </mxCell>
        <mxCell id="XiizGxNztvci3S3A1X1L-82" value="" style="endArrow=classic;html=1;rounded=0;entryX=0.25;entryY=0;entryDx=0;entryDy=0;exitX=0.25;exitY=1;exitDx=0;exitDy=0;" edge="1" parent="XiizGxNztvci3S3A1X1L-80" source="XiizGxNztvci3S3A1X1L-81" target="XiizGxNztvci3S3A1X1L-81">
          <mxGeometry width="50" height="50" relative="1" as="geometry">
            <mxPoint x="-23" y="67.5" as="sourcePoint" />
            <mxPoint x="33" y="19" as="targetPoint" />
          </mxGeometry>
        </mxCell>
        <mxCell id="XiizGxNztvci3S3A1X1L-83" value="" style="endArrow=classic;html=1;rounded=0;entryX=0.75;entryY=1;entryDx=0;entryDy=0;exitX=0.75;exitY=0;exitDx=0;exitDy=0;" edge="1" parent="XiizGxNztvci3S3A1X1L-80" source="XiizGxNztvci3S3A1X1L-81" target="XiizGxNztvci3S3A1X1L-81">
          <mxGeometry width="50" height="50" relative="1" as="geometry">
            <mxPoint x="8" y="67" as="sourcePoint" />
            <mxPoint x="13" y="9.5" as="targetPoint" />
          </mxGeometry>
        </mxCell>
        <mxCell id="XiizGxNztvci3S3A1X1L-86" value="" style="group;rotation=90;" vertex="1" connectable="0" parent="WIyWlLk6GJQsqaUBKTNV-1">
          <mxGeometry x="270" y="270" width="35" height="80" as="geometry" />
        </mxCell>
        <mxCell id="XiizGxNztvci3S3A1X1L-84" value="" style="shape=partialRectangle;whiteSpace=wrap;html=1;top=0;bottom=0;fillColor=none;rotation=90;" vertex="1" parent="XiizGxNztvci3S3A1X1L-86">
          <mxGeometry x="20" y="-20" width="15" height="100" as="geometry" />
        </mxCell>
        <mxCell id="XiizGxNztvci3S3A1X1L-85" value="" style="endArrow=classic;html=1;rounded=0;entryX=0.5;entryY=0;entryDx=0;entryDy=0;exitX=0.5;exitY=1;exitDx=0;exitDy=0;" edge="1" parent="XiizGxNztvci3S3A1X1L-86" source="XiizGxNztvci3S3A1X1L-84" target="XiizGxNztvci3S3A1X1L-84">
          <mxGeometry width="50" height="50" relative="1" as="geometry">
            <mxPoint x="-32" y="8" as="sourcePoint" />
            <mxPoint x="18" y="58" as="targetPoint" />
          </mxGeometry>
        </mxCell>
        <mxCell id="XiizGxNztvci3S3A1X1L-87" value="" style="group" vertex="1" connectable="0" parent="WIyWlLk6GJQsqaUBKTNV-1">
          <mxGeometry x="175" y="370" width="15" height="60" as="geometry" />
        </mxCell>
        <mxCell id="XiizGxNztvci3S3A1X1L-55" value="" style="shape=partialRectangle;whiteSpace=wrap;html=1;top=0;bottom=0;fillColor=none;" vertex="1" parent="XiizGxNztvci3S3A1X1L-87">
          <mxGeometry width="15" height="60" as="geometry" />
        </mxCell>
        <mxCell id="XiizGxNztvci3S3A1X1L-57" value="" style="endArrow=classic;html=1;rounded=0;entryX=0.5;entryY=0;entryDx=0;entryDy=0;exitX=0.5;exitY=1;exitDx=0;exitDy=0;" edge="1" parent="XiizGxNztvci3S3A1X1L-87" source="XiizGxNztvci3S3A1X1L-55" target="XiizGxNztvci3S3A1X1L-55">
          <mxGeometry width="50" height="50" relative="1" as="geometry">
            <mxPoint x="-15" y="70" as="sourcePoint" />
            <mxPoint x="35" y="20" as="targetPoint" />
          </mxGeometry>
        </mxCell>
        <mxCell id="XiizGxNztvci3S3A1X1L-88" value="" style="group" vertex="1" connectable="0" parent="WIyWlLk6GJQsqaUBKTNV-1">
          <mxGeometry x="360" y="80" width="120" height="120" as="geometry" />
        </mxCell>
        <mxCell id="XiizGxNztvci3S3A1X1L-99" value="" style="group" vertex="1" connectable="0" parent="XiizGxNztvci3S3A1X1L-88">
          <mxGeometry y="-40" width="120" height="120" as="geometry" />
        </mxCell>
        <mxCell id="XiizGxNztvci3S3A1X1L-89" value="" style="ellipse;whiteSpace=wrap;html=1;aspect=fixed;" vertex="1" parent="XiizGxNztvci3S3A1X1L-99">
          <mxGeometry width="120" height="120" as="geometry" />
        </mxCell>
        <mxCell id="XiizGxNztvci3S3A1X1L-90" value="Road&lt;div&gt;Actor&lt;/div&gt;&lt;div&gt;&lt;br&gt;&lt;/div&gt;" style="shape=umlActor;verticalLabelPosition=bottom;verticalAlign=top;html=1;outlineConnect=0;" vertex="1" parent="XiizGxNztvci3S3A1X1L-99">
          <mxGeometry x="45" y="12" width="30" height="60" as="geometry" />
        </mxCell>
        <mxCell id="XiizGxNztvci3S3A1X1L-100" value="" style="group;rotation=-55;" vertex="1" connectable="0" parent="WIyWlLk6GJQsqaUBKTNV-1">
          <mxGeometry x="320" y="90" width="15" height="180" as="geometry" />
        </mxCell>
        <mxCell id="XiizGxNztvci3S3A1X1L-101" value="" style="shape=partialRectangle;whiteSpace=wrap;html=1;top=0;bottom=0;fillColor=none;direction=east;rotation=-55;" vertex="1" parent="XiizGxNztvci3S3A1X1L-100">
          <mxGeometry x="-22" y="19" width="15" height="179.99999999999997" as="geometry" />
        </mxCell>
        <mxCell id="XiizGxNztvci3S3A1X1L-102" value="" style="endArrow=classic;html=1;rounded=0;entryX=0.25;entryY=0;entryDx=0;entryDy=0;exitX=0.25;exitY=1;exitDx=0;exitDy=0;" edge="1" parent="XiizGxNztvci3S3A1X1L-100" source="XiizGxNztvci3S3A1X1L-101" target="XiizGxNztvci3S3A1X1L-101">
          <mxGeometry width="50" height="50" relative="1" as="geometry">
            <mxPoint x="40" y="213" as="sourcePoint" />
            <mxPoint x="-17" y="57" as="targetPoint" />
          </mxGeometry>
        </mxCell>
        <mxCell id="XiizGxNztvci3S3A1X1L-103" value="" style="endArrow=classic;html=1;rounded=0;entryX=0.75;entryY=1;entryDx=0;entryDy=0;exitX=0.75;exitY=0;exitDx=0;exitDy=0;" edge="1" parent="XiizGxNztvci3S3A1X1L-100" source="XiizGxNztvci3S3A1X1L-101" target="XiizGxNztvci3S3A1X1L-101">
          <mxGeometry width="50" height="50" relative="1" as="geometry">
            <mxPoint x="55" y="175" as="sourcePoint" />
            <mxPoint x="-45" y="63" as="targetPoint" />
          </mxGeometry>
        </mxCell>
        <mxCell id="XiizGxNztvci3S3A1X1L-104" value="" style="group;rotation=0;" vertex="1" connectable="0" parent="WIyWlLk6GJQsqaUBKTNV-1">
          <mxGeometry x="414" y="170" width="15" height="60" as="geometry" />
        </mxCell>
        <mxCell id="XiizGxNztvci3S3A1X1L-105" value="" style="shape=partialRectangle;whiteSpace=wrap;html=1;top=0;bottom=0;fillColor=none;direction=east;rotation=0;" vertex="1" parent="XiizGxNztvci3S3A1X1L-104">
          <mxGeometry x="-4" y="-1" width="15" height="59.999999999999986" as="geometry" />
        </mxCell>
        <mxCell id="XiizGxNztvci3S3A1X1L-106" value="" style="endArrow=classic;html=1;rounded=0;entryX=0.25;entryY=0;entryDx=0;entryDy=0;exitX=0.25;exitY=1;exitDx=0;exitDy=0;" edge="1" parent="XiizGxNztvci3S3A1X1L-104" source="XiizGxNztvci3S3A1X1L-105" target="XiizGxNztvci3S3A1X1L-105">
          <mxGeometry width="50" height="50" relative="1" as="geometry">
            <mxPoint x="-23" y="67.5" as="sourcePoint" />
            <mxPoint x="33" y="19" as="targetPoint" />
          </mxGeometry>
        </mxCell>
        <mxCell id="XiizGxNztvci3S3A1X1L-107" value="" style="endArrow=classic;html=1;rounded=0;entryX=0.75;entryY=1;entryDx=0;entryDy=0;exitX=0.75;exitY=0;exitDx=0;exitDy=0;" edge="1" parent="XiizGxNztvci3S3A1X1L-104" source="XiizGxNztvci3S3A1X1L-105" target="XiizGxNztvci3S3A1X1L-105">
          <mxGeometry width="50" height="50" relative="1" as="geometry">
            <mxPoint x="8" y="67" as="sourcePoint" />
            <mxPoint x="13" y="9.5" as="targetPoint" />
          </mxGeometry>
        </mxCell>
        <mxCell id="XiizGxNztvci3S3A1X1L-111" value="" style="shape=waypoint;sketch=0;fillStyle=solid;size=6;pointerEvents=1;points=[];fillColor=none;resizable=0;rotatable=0;perimeter=centerPerimeter;snapToPoint=1;" vertex="1" parent="WIyWlLk6GJQsqaUBKTNV-1">
          <mxGeometry x="260" y="80" width="20" height="20" as="geometry" />
        </mxCell>
        <mxCell id="XiizGxNztvci3S3A1X1L-112" value="" style="shape=waypoint;sketch=0;fillStyle=solid;size=6;pointerEvents=1;points=[];fillColor=none;resizable=0;rotatable=0;perimeter=centerPerimeter;snapToPoint=1;" vertex="1" parent="WIyWlLk6GJQsqaUBKTNV-1">
          <mxGeometry x="290" y="80" width="20" height="20" as="geometry" />
        </mxCell>
        <mxCell id="XiizGxNztvci3S3A1X1L-113" value="" style="shape=waypoint;sketch=0;fillStyle=solid;size=6;pointerEvents=1;points=[];fillColor=none;resizable=0;rotatable=0;perimeter=centerPerimeter;snapToPoint=1;" vertex="1" parent="WIyWlLk6GJQsqaUBKTNV-1">
          <mxGeometry x="320" y="80" width="20" height="20" as="geometry" />
        </mxCell>
      </root>
    </mxGraphModel>
  </diagram>
</mxfile>
